<?xml version="1.0" encoding="utf-8"?>
<!-- Generator: Adobe Illustrator 22.1.0, SVG Export Plug-In . SVG Version: 6.00 Build 0)  -->
<svg version="1.1" id="Layer_1" xmlns="http://www.w3.org/2000/svg" xmlns:xlink="http://www.w3.org/1999/xlink" x="0px" y="0px"
	 viewBox="0 0 1024 1024" style="enable-background:new 0 0 1024 1024;" xml:space="preserve">
<g>
	<path d="M512,76C271.2,76,76,271.2,76,512c0,183.2,113,339.9,273,404.5v-136c0-23.2,19-42.2,42.2-42.2h86.2v-32.9
		c-66.5-15.3-116.2-74.9-116.2-146.1c0-82.8,150.8-267.9,150.8-267.9s148.9,185.1,148.9,267.9c0,70.8-49.2,130.2-115.2,145.8v33.1
		h87.1c23.2,0,42.2,19,42.2,42.2v136C835,851.9,948,695.2,948,512C948,271.2,752.8,76,512,76z"/>
	<path d="M567,621c0-30.4-55-83-55-83s-55,52.6-55,83s24.6,55,55,55S567,651.4,567,621z"/>
</g>
</svg>
